<?xml version="1.0" encoding="UTF-8"?>
<svg width="26px" height="26px" viewBox="0 0 26 26" version="1.1" xmlns="http://www.w3.org/2000/svg" xmlns:xlink="http://www.w3.org/1999/xlink">
    <!-- Generator: Sketch 52.5 (67469) - http://www.bohemiancoding.com/sketch -->
    <title>ico-error</title>
    <desc>Created with Sketch.</desc>
    <defs>
        <filter x="-4.2%" y="-17.6%" width="108.3%" height="135.3%" filterUnits="objectBoundingBox" id="filter-1">
            <feOffset dx="0" dy="2" in="SourceAlpha" result="shadowOffsetOuter1"></feOffset>
            <feGaussianBlur stdDeviation="2" in="shadowOffsetOuter1" result="shadowBlurOuter1"></feGaussianBlur>
            <feColorMatrix values="0 0 0 0 0   0 0 0 0 0   0 0 0 0 0  0 0 0 0.3 0" type="matrix" in="shadowBlurOuter1" result="shadowMatrixOuter1"></feColorMatrix>
            <feMerge>
                <feMergeNode in="shadowMatrixOuter1"></feMergeNode>
                <feMergeNode in="SourceGraphic"></feMergeNode>
            </feMerge>
        </filter>
    </defs>
    <g id="ALERTAS" stroke="none" stroke-width="1" fill="none" fill-rule="evenodd">
        <g id="Alerts" transform="translate(-71.000000, -316.000000)">
            <g id="actualizar" filter="url(#filter-1)" transform="translate(60.000000, 293.000000)">
                <g id="Group-7">
                    <g id="Group-21" transform="translate(16.383459, 16.000000)">
                        <g id="ico-error" transform="translate(0.000000, 10.000000)">
                            <circle id="Oval-3" stroke="#C31D76" stroke-width="1.5" cx="8" cy="8" r="8"></circle>
                            <g id="Group" transform="translate(7.000000, 3.000000)" fill="#C31D76" fill-rule="nonzero">
                                <path d="M1.29380974,0.104373474 C1.86718041,0.104373474 2.31086009,0.655185047 2.28150897,1.32826729 L2.09994159,5.38456717 C2.07059048,6.05705587 1.70677314,6.60786745 1.29176199,6.60786745 C0.876750836,6.60786745 0.512250911,6.05705587 0.482899794,5.38456717 L0.303380168,1.32826729 C0.274029051,0.655185047 0.719073902,0.104373474 1.29380974,0.104373474 Z" id="Path"></path>
                                <path d="M1.29380974,9.66344716 C0.570270562,9.66344716 0.074031901,9.20344827 0.0890487518,8.57488205 C0.0890487518,7.93266425 0.586652581,7.48631694 1.29380974,7.48631694 C2.0310006,7.48631694 2.49720556,7.93266425 2.51290499,8.57488205 C2.51290499,9.20344827 2.0310006,9.66344716 1.29380974,9.66344716 Z" id="Path"></path>
                            </g>
                        </g>
                    </g>
                </g>
            </g>
        </g>
    </g>
</svg>