<?xml version="1.0" encoding="UTF-8"?>
<svg width="29px" height="28px" viewBox="0 0 29 28" version="1.1" xmlns="http://www.w3.org/2000/svg" xmlns:xlink="http://www.w3.org/1999/xlink">
    <!-- Generator: Sketch 52.5 (67469) - http://www.bohemiancoding.com/sketch -->
    <title>icon-abono</title>
    <desc>Created with Sketch.</desc>
    <defs>
        <filter x="-4.2%" y="-23.1%" width="108.3%" height="146.2%" filterUnits="objectBoundingBox" id="filter-1">
            <feOffset dx="0" dy="2" in="SourceAlpha" result="shadowOffsetOuter1"></feOffset>
            <feGaussianBlur stdDeviation="2" in="shadowOffsetOuter1" result="shadowBlurOuter1"></feGaussianBlur>
            <feColorMatrix values="0 0 0 0 0   0 0 0 0 0   0 0 0 0 0  0 0 0 0.3 0" type="matrix" in="shadowBlurOuter1" result="shadowMatrixOuter1"></feColorMatrix>
            <feMerge>
                <feMergeNode in="shadowMatrixOuter1"></feMergeNode>
                <feMergeNode in="SourceGraphic"></feMergeNode>
            </feMerge>
        </filter>
    </defs>
    <g id="ALERTAS" stroke="none" stroke-width="1" fill="none" fill-rule="evenodd">
        <g id="Alerts" transform="translate(-71.000000, -386.000000)">
            <g id="actualizar" filter="url(#filter-1)" transform="translate(60.000000, 372.000000)">
                <g id="Group-5" transform="translate(16.000000, 16.000000)">
                    <g id="Group-6">
                        <g id="icon-abono" transform="translate(0.000000, 1.000000)">
                            <ellipse id="Oval-3" stroke="#50E3C2" stroke-width="1.5" cx="9.31304348" cy="9" rx="9.31304348" ry="9"></ellipse>
                            <path d="M12.5254631,5.52086769 L11.8252976,6.22018373 C11.4068598,5.84440865 10.8742347,5.62341397 10.3209139,5.59599086 C9.79925328,5.59203518 9.30642646,5.80329962 8.95876284,6.17991621 C8.76426035,6.36717516 8.60888662,6.59126522 8.50108953,6.84000229 C8.40687186,7.0687672 8.36086774,7.31587155 8.36587041,7.56631196 C8.37194345,7.8397572 8.41755177,8.11224019 8.5012806,8.37530844 C8.61419931,8.72568383 8.74767715,9.06974536 8.90100623,9.40566838 C9.04904137,9.69537735 9.1399572,10.0092582 9.16864829,10.3296849 C9.16245667,10.557854 9.06623995,10.7712886 8.90090067,10.9236214 C8.74698952,11.1047403 8.52219331,11.2109292 8.28063358,11.2166223 C8.04148677,11.2071453 7.81345912,11.0997048 7.65028104,10.9196171 C7.46322057,10.737678 7.36352732,10.4851185 7.37795658,10.2297194 C7.42784416,9.90968729 7.58878793,9.62095854 7.83296021,9.41345526 L6.80777645,8.37241662 C6.3858223,8.7549288 6.11794844,9.27877419 6.05146404,9.85143652 C6.01387305,10.398404 6.19140837,10.945807 6.54651283,11.3778435 L5.77803856,12.1453855 L6.36116399,12.7278273 L7.11256106,11.9773418 C7.52873763,12.3487793 8.05907601,12.5639402 8.60796124,12.5840332 C9.132451,12.5893909 9.62848054,12.3781546 9.97879919,12.0002562 C10.1891109,11.801184 10.3536192,11.5587029 10.4616434,11.2885557 C10.5520631,11.050059 10.5920157,10.7939291 10.5790437,10.5359197 C10.5600308,10.2579152 10.5027202,9.98255628 10.4087375,9.71765341 C10.2830126,9.37821041 10.1381484,9.0455827 9.97485748,8.72140645 C9.83029873,8.45009553 9.74522414,8.15273143 9.72547915,7.84974595 C9.73571323,7.60723789 9.84099565,7.38167588 10.0186943,7.22154812 C10.1769515,7.04560644 10.4073465,6.95113281 10.6482415,6.96340179 C10.9055707,6.98818864 11.1469682,7.11027066 11.3227702,7.30453135 C11.5578012,7.5122033 11.6930762,7.80947765 11.6927272,8.11753235 C11.6622378,8.4525035 11.5062884,8.75946461 11.255839,8.97747593 L12.3072318,10.0276361 C12.7504879,9.62693404 13.0174703,9.0666164 13.0533742,8.46170226 C13.052191,7.85183298 12.8220101,7.25675427 12.4082747,6.79394894 L13.1084402,6.09463289 L12.5254631,5.52086769 Z" id="Path" fill="#50E3C2" transform="translate(9.443239, 9.124347) rotate(136.000000) translate(-9.443239, -9.124347) "></path>
                        </g>
                    </g>
                </g>
            </g>
        </g>
    </g>
</svg>